#!OML:ASF F:\twosubjects\two\Thursday\Session 1\justin.ASF
:FULLY-SPECIFIED
:DEGREES
324
root 8.15514 16.7763 -4.16082 6.8722 -20.3493 -3.89518
lowerback 19.6774 2.11748 -2.62846
upperback 8.93785 2.20638 1.5009
thorax -1.5159 0.937791 2.63074
lowerneck -3.37065 -15.1376 -20.1399
upperneck -10.8569 -19.1254 23.5801
head 1.82766 -9.56915 9.29062
rclavicle -4.87022e-015 -3.17062e-014
rhumerus -24.8536 -38.7321 -4.74265
rradius 34.8319
rwrist 4.41729
rhand -41.9627 28.01
rfingers 7.12502
rthumb -14.8592 -1.43716
lclavicle -4.87022e-015 -3.17062e-014
lhumerus -56.6548 4.7849 33.4097
lradius 22.4768
lwrist -31.531
lhand -16.0143 53.9771
lfingers 7.12502
lthumb 10.1864 83.7105
rfemur -28.1538 -20.0541 16.0585
rtibia 62.9383
rfoot -22.5554 -13.66
rtoes -19.0368
lfemur -34.2195 6.64801 -3.29274
ltibia 47.8372
lfoot -16.3064 -1.31864
ltoes -25.0421
325
root 8.13678 16.7685 -4.19913 6.57434 -19.4941 -3.48695
lowerback 19.8597 2.14087 -2.85099
upperback 8.95204 2.19378 1.38959
thorax -1.59452 0.930989 2.63752
lowerneck -2.86121 -15.1065 -20.1674
upperneck -11.1943 -19.1293 23.8682
head 1.69465 -9.61144 9.43663
rclavicle 3.97569e-015 -2.5842e-015
rhumerus -24.7651 -37.7424 -4.90709
rradius 35.3106
rwrist 3.16378
rhand -42.1535 27.5422
rfingers 7.12502
rthumb -15.043 -1.8913
lclavicle 3.97569e-015 -2.5842e-015
lhumerus -56.2314 4.58021 33.0285
lradius 22.6482
lwrist -31.4539
lhand -16.5032 54.419
lfingers 7.12502
lthumb 9.71465 84.1749
rfemur -28.8605 -20.3244 15.5291
rtibia 64.4148
rfoot -21.1114 -13.4115
rtoes -16.8318
lfemur -34.4068 6.1359 -3.58905
ltibia 47.6795
lfoot -16.0936 -1.9403
ltoes -24.6121
326
root 8.12107 16.7543 -4.24109 6.3561 -18.6536 -3.46132
lowerback 19.9769 2.12076 -2.68036
upperback 9.02297 2.19779 1.38127
thorax -1.57239 0.937696 2.52944
lowerneck -2.28606 -15.1482 -20.3076
upperneck -11.5322 -19.2432 24.0266
head 1.56567 -9.70502 9.54691
rclavicle -2.05742e-014 5.66536e-015
rhumerus -24.5117 -37.6068 -4.92449
rradius 35.3692
rwrist 2.94429
rhand -41.9816 27.7824
rfingers 7.12502
rthumb -14.8774 -1.66337
lclavicle -2.05742e-014 5.66536e-015
lhumerus -55.8475 4.49036 32.6539
lradius 22.7895
lwrist -31.4376
lhand -17.1335 54.47
lfingers 7.12502
lthumb 9.10655 84.2534
rfemur -29.4437 -20.4343 15.3575
rtibia 65.7495
rfoot -19.5595 -13.1627
rtoes -14.956
lfemur -34.5449 5.71682 -3.49511
ltibia 47.5076
lfoot -16.0128 -2.40851
ltoes -25.5511
327
root 8.09806 16.7381 -4.27784 6.06738 -18.0721 -3.49093
lowerback 20.0462 2.21898 -2.61625
upperback 9.22241 2.33628 1.42892
thorax -1.40086 1.00224 2.51608
lowerneck -2.41215 -15.411 -19.9138
upperneck -11.5279 -19.5875 23.5239
head 1.54609 -9.86806 9.27103
rclavicle 4.09993e-014 -1.3418e-014
rhumerus -23.9727 -38.899 -4.83205
rradius 34.9212
rwrist 4.02755
rhand -42.0374 28.2925
rfingers 7.12502
rthumb -14.9312 -1.14929
lclavicle 4.09993e-014 -1.3418e-014
lhumerus -55.4379 4.552 32.4515
lradius 22.9466
lwrist -31.2867
lhand -17.6706 54.5451
lfingers 7.12502
lthumb 8.58826 84.3504
rfemur -29.8672 -20.226 15.1747
rtibia 66.9525
rfoot -18.1342 -13.2183
rtoes -11.9094
lfemur -34.4621 5.60325 -3.38857
ltibia 47.3164
lfoot -15.9294 -2.68842
ltoes -27.4056
328
root 8.06972 16.7362 -4.31054 5.68145 -17.548 -3.24859
lowerback 20.1352 2.29429 -2.82554
upperback 9.45212 2.39268 1.37644
thorax -1.20564 1.01963 2.56901
lowerneck -2.78222 -15.5834 -19.4242
upperneck -11.5302 -19.769 23.0609
head 1.52531 -9.9428 9.00476
rclavicle -1.14301e-014 1.36167e-014
rhumerus -23.1038 -40.2486 -5.06791
rradius 34.4411
rwrist 4.93974
rhand -42.1112 28.2526
rfingers 7.12502
rthumb -15.0023 -1.1839
lclavicle -1.14301e-014 1.36167e-014
lhumerus -55.2345 4.56798 32.2457
lradius 23.2643
lwrist -30.8717
lhand -16.4616 54.0043
lfingers 7.12502
lthumb 9.75482 83.7584
rfemur -30.182 -20.0474 14.6913
rtibia 67.9752
rfoot -17.0695 -13.2843
rtoes -9.10904
lfemur -34.3598 5.40988 -3.54975
ltibia 47.091
lfoot -15.9845 -2.94008
ltoes -28.6826
329
root 8.03602 16.7371 -4.35104 5.38906 -16.8822 -3.07705
lowerback 20.2154 2.29554 -2.99002
upperback 9.5749 2.36465 1.33885
thorax -1.11482 0.9997 2.6285
lowerneck -2.55986 -15.5769 -19.7605
upperneck -11.6588 -19.7765 23.507
head 1.55204 -9.96104 9.20624
rclavicle -4.51241e-014 -4.96962e-015
rhumerus -22.2008 -40.7639 -5.55283
rradius 34.3411
rwrist 4.87955
rhand -41.767 27.377
rfingers 7.12502
rthumb -14.6706 -2.08397
lclavicle -4.51241e-014 -4.96962e-015
lhumerus -55.1097 4.5521 31.8842
lradius 23.5321
lwrist -30.5219
lhand -14.9174 53.0949
lfingers 7.12502
lthumb 11.2444 82.7735
rfemur -30.4782 -19.8861 14.3346
rtibia 68.7592
rfoot -17.0127 -12.8361
rtoes -8.31432
lfemur -34.4282 5.04024 -3.54929
ltibia 46.8355
lfoot -16.0818 -3.48196
ltoes -27.8865
330
root 7.99514 16.7251 -4.39953 5.23289 -16.1502 -3.08197
lowerback 20.2058 2.35938 -3.07469
upperback 9.64401 2.43984 1.4185
thorax -1.04605 1.03242 2.7469
lowerneck -2.33231 -15.71 -20.1754
upperneck -11.5162 -20.0086 23.8784
head 1.69827 -10.0813 9.3461
rclavicle -3.66261e-014 4.27387e-015
rhumerus -21.6123 -40.6626 -5.82209
rradius 34.5455
rwrist 4.34319
rhand -41.4013 26.0252
rfingers 7.12502
rthumb -14.3183 -3.46108
lclavicle -3.66261e-014 4.27387e-015
lhumerus -54.6933 4.78601 31.3567
lradius 23.5958
lwrist -30.9087
lhand -14.7918 52.6581
lfingers 7.12502
lthumb 11.3656 82.3301
rfemur -30.79 -19.5068 14.1846
rtibia 69.293
rfoot -17.2491 -12.7792
rtoes -5.35574
lfemur -34.517 4.84445 -3.42984
ltibia 46.5351
lfoot -15.9485 -3.75486
ltoes -28.989
331
root 7.95031 16.7176 -4.45108 5.03148 -15.3341 -3.27388
lowerback 20.2495 2.43289 -2.89605
upperback 9.81312 2.57354 1.58921
thorax -0.895493 1.09693 2.80123
lowerneck -2.28633 -15.9852 -20.3745
upperneck -11.3815 -20.4074 23.8967
head 1.8323 -10.2722 9.30541
rclavicle -3.92103e-014 4.7112e-014
rhumerus -21.1805 -41.0372 -5.7577
rradius 34.5643
rwrist 4.3509
rhand -41.1905 24.9495
rfingers 7.12502
rthumb -14.1152 -4.55101
lclavicle -3.92103e-014 4.7112e-014
lhumerus -54.0839 5.05884 30.9593
lradius 23.7593
lwrist -31.4873
lhand -15.0326 52.2925
lfingers 7.12502
lthumb 11.1333 81.9771
rfemur -30.8324 -18.9715 14.204
rtibia 69.4833
rfoot -17.8572 -13.1268
rtoes -5.10276
lfemur -34.5028 4.61696 -3.10597
ltibia 46.2294
lfoot -15.6289 -4.12987
ltoes -30.4511
332
root 7.90241 16.7206 -4.49991 4.79324 -14.4587 -3.35537
lowerback 20.3043 2.47587 -2.65148
upperback 9.99472 2.67584 1.65818
thorax -0.72766 1.15074 2.7167
lowerneck -1.64238 -16.0801 -20.7834
upperneck -11.9634 -20.58 24.4536
head 1.72417 -10.4065 9.57783
rclavicle -2.18912e-014 9.91439e-015
rhumerus -20.8831 -41.5221 -5.63348
rradius 34.3935
rwrist 4.38717
rhand -41.349 24.8673
rfingers 7.12502
rthumb -14.2679 -4.62256
lclavicle -2.18912e-014 9.91439e-015
lhumerus -53.4732 4.86371 30.8609
lradius 24.2
lwrist -31.034
lhand -16.0396 52.1131
lfingers 7.12502
lthumb 10.162 81.8477
rfemur -30.6587 -18.4279 14.0787
rtibia 69.3206
rfoot -18.7536 -13.511
rtoes -9.65666
lfemur -34.5291 4.26526 -2.86344
ltibia 45.8929
lfoot -15.3739 -4.79684
ltoes -29.6831
333
root 7.85202 16.7263 -4.54558 4.72271 -13.6789 -3.33332
lowerback 20.1679 2.50505 -2.53185
upperback 10.0355 2.74189 1.58793
thorax -0.611633 1.19015 2.56523
lowerneck -0.737507 -15.9571 -20.8275
upperneck -12.7539 -20.4723 24.9842
head 1.41795 -10.4347 9.88094
rclavicle -9.86469e-015 3.41661e-014
rhumerus -20.5979 -41.593 -5.76064
rradius 34.1755
rwrist 4.22528
rhand -41.7899 25.6328
rfingers 7.12502
rthumb -14.6927 -3.82657
lclavicle -9.86469e-015 3.41661e-014
lhumerus -53.1178 4.72018 30.3366
lradius 24.892
lwrist -30.7362
lhand -17.7452 52.5906
lfingers 7.12502
lthumb 8.51622 82.3988
rfemur -30.5801 -17.746 13.8524
rtibia 68.8549
rfoot -19.2758 -14.0196
rtoes -9.18119
lfemur -34.7154 4.09475 -2.79058
ltibia 45.4918
lfoot -14.9174 -5.41646
ltoes -28.5541
334
root 7.80038 16.7396 -4.59378 4.63927 -13.0267 -3.36098
lowerback 20.0386 2.54849 -2.45174
upperback 10.0278 2.82032 1.56592
thorax -0.555846 1.2345 2.48402
lowerneck -0.339766 -16.0071 -20.4752
upperneck -12.885 -20.5909 24.7157
head 1.26487 -10.5209 9.77499
rclavicle -6.95746e-016 1.79403e-014
rhumerus -20.1377 -41.8119 -5.99311
rradius 34.0053
rwrist 4.38536
rhand -41.8742 26.3262
rfingers 7.12502
rthumb -14.774 -3.12726
lclavicle -6.95746e-016 1.79403e-014
lhumerus -52.8383 4.84232 29.5688
lradius 25.3948
lwrist -31.1872
lhand -18.5846 52.8393
lfingers 7.12502
lthumb 7.70611 82.6789
rfemur -30.3986 -16.8006 13.6105
rtibia 68.1195
rfoot -20.0632 -13.9185
rtoes -6.64697
lfemur -34.8398 3.86802 -2.59268
ltibia 45.0122
lfoot -14.217 -6.16214
ltoes -26.3556
